<svg id="Layer_1" data-name="Layer 1" xmlns="http://www.w3.org/2000/svg" viewBox="0 0 109.57 122.88">
<title>distribute</title>

<!-- First part of the object with color 1 -->
<path d="M51.83,29.77V21.89a11.12,11.12,0,0,1-5-18.62h0a11.09,11.09,0,0,1,15.71,0h0A11.13,11.13,0,0,1,57.17,22v7.47L57,29.39a6.51,6.51,0,0,0-.92-.18,10.81,10.81,0,0,0-1.24,0h-.14a6.82,6.82,0,0,0-1,.07c-.23,0-.51.1-.82.18a6.71,6.71,0,0,0-1,.31l-.08,0Zm-18,17.51L54.1,35.93l.25-.1a2.05,2.05,0,0,1,.65-.1,2.1,2.1,0,0,1,.56.07A1.09,1.09,0,0,1,56,36L76.06,47.61a2.08,2.08,0,0,1,1.11,1,2.65,2.65,0,0,1,.3,1.3V73.32a2.26,2.26,0,0,1-1.19,1.85L56.13,86.88a2,2,0,0,1-.46.18,2.15,2.15,0,0,1-1.23,0,2.18,2.18,0,0,1-.56-.25l-20.61-12A2.26,2.26,0,0,1,32.1,73V49.46a2.26,2.26,0,0,1,1.7-2.18Z" 
fill="#D8453E"/> <!-- First object color: red -->

<!-- Second part of the object with color 2 -->
<path d="M73,53.4,57.31,62.78V81.11L73,71.86V53.4ZM55,40.47,39.69,49.61l15.38,9.26,14.92-9L55,40.47ZM57.32,101a11.18,11.18,0,0,1,5.21,2.94h0a11.09,11.09,0,0,1,0,15.71h0a11.09,11.09,0,0,1-15.71,0h0a11.09,11.09,0,0,1,0-15.71h0A11.09,11.09,0,0,1,52,101v-7.8a6.6,6.6,0,0,0,.66.23v0l.38.1a4.9,4.9,0,0,0,.78.16,8.48,8.48,0,0,0,1.26.11,8.37,8.37,0,0,0,1.26-.11,6.44,6.44,0,0,0,1-.22V101Z" 
fill="#393939"/> <!-- Second object color: blue -->

</svg>