<?xml version="1.0" standalone="no"?>
<!DOCTYPE svg PUBLIC "-//W3C//DTD SVG 20010904//EN"
 "http://www.w3.org/TR/2001/REC-SVG-20010904/DTD/svg10.dtd">
<svg version="1.0" xmlns="http://www.w3.org/2000/svg"
 width="360.000000pt" height="360.000000pt" viewBox="0 0 360.000000 360.000000"
 preserveAspectRatio="xMidYMid meet">

<defs>
  <!-- Gradiente per la lettera L, con taglio diagonale -->
  <linearGradient id="paint0_linear" x1="0%" y1="70%" x2="100%" y2="0%" gradientUnits="userSpaceOnUse">
    <stop offset="0%" stop-color="#7f1e45"/>
    <stop offset="100%" stop-color="#ff5ca0"/>
  </linearGradient>

  <!-- Gradiente per la lettera M, con taglio diagonale -->
  <linearGradient id="paint1_linear" x1="20%" y1="100%" x2="150%" y2="0%" gradientUnits="userSpaceOnUse">
    <stop offset="0%" stop-color="#f170ff "/>
    <stop offset="100%" stop-color="#f170ff"/>
  </linearGradient>
</defs>


<g transform="translate(0.000000,360.000000) scale(0.100000,-0.100000)"
stroke="none">
  <!-- Lettera L in rosso -->
  <path d="M1250 1800 l0 -360 297 0 298 0 -90 90 -90 90 -112 0 -113 0 0 270 0
  270 -95 0 -95 0 0 -360z" fill="url(#paint0_linear)"/> <!-- Colore rosso (#ff0000) -->
  
  <!-- Lettera M in blu -->
  <path d="M1560 1952 l0 -202 73 0 72 0 120 -120 120 -120 107 107 108 108 0
  -85 0 -84 -57 -58 -57 -58 152 0 152 0 0 355 c0 195 -3 355 -6 355 -4 0 -93
  -83 -199 -185 -106 -102 -196 -185 -201 -185 -5 0 -93 84 -196 187 l-188 188
  0 -203z" fill="url(#paint1_linear)"/> <!-- Colore blu (#0000ff) -->

</g>


</svg>