<svg width="60" height="60" viewBox="0 0 60 60" fill="none" xmlns="http://www.w3.org/2000/svg">
  <!-- Outer Brain Shape -->
  <path d="M30 3C19 3 10 10 10 20C10 28 20 40 30 40C40 40 50 28 50 20C50 10 41 3 30 3Z" fill="url(#paint0_linear)" opacity="0.8"/>
  
  <!-- Inner AI Nodes -->
  <circle cx="25" cy="15" r="3" fill="url(#paint1_linear)"/>
  <circle cx="35" cy="25" r="3" fill="url(#paint2_linear)"/>
  <circle cx="20" cy="30" r="3" fill="url(#paint3_linear)"/>
  <circle cx="40" cy="20" r="3" fill="url(#paint4_linear)"/>
  
  <!-- Connections -->
  <path d="M25 15 L35 25" stroke="url(#paint1_linear)" stroke-width="1.5"/>
  <path d="M25 15 L20 30" stroke="url(#paint1_linear)" stroke-width="1.5"/>
  <path d="M35 25 L40 20" stroke="url(#paint1_linear)" stroke-width="1.5"/>
  <path d="M20 30 L40 20" stroke="url(#paint1_linear)" stroke-width="1.5"/>
  
  <!-- Digital Circuit Background -->
  <rect x="15" y="45" width="30" height="10" rx="3" fill="url(#paint5_linear)" opacity="0.7"/>
  <path d="M20 45 L20 40" stroke="url(#paint2_linear)" stroke-width="1.5"/>
  <path d="M40 45 L40 40" stroke="url(#paint3_linear)" stroke-width="1.5"/>

  <!-- Gradients Definition -->
  <defs>
    <linearGradient id="paint0_linear" x1="10" y1="3" x2="50" y2="50" gradientUnits="userSpaceOnUse">
      <stop offset="0.259336" stop-color="#FFDB6E"/>
      <stop offset="1" stop-color="#FFBC5E"/>
    </linearGradient>
    <linearGradient id="paint1_linear" x1="25" y1="15" x2="40" y2="40" gradientUnits="userSpaceOnUse">
      <stop offset="0.259336" stop-color="#FFDB6E"/>
      <stop offset="1" stop-color="#FFBC5E"/>
    </linearGradient>
    <linearGradient id="paint2_linear" x1="35" y1="25" x2="45" y2="45" gradientUnits="userSpaceOnUse">
      <stop offset="0.259336" stop-color="#FFDB6E"/>
      <stop offset="1" stop-color="#FFBC5E"/>
    </linearGradient>
    <linearGradient id="paint3_linear" x1="20" y1="30" x2="30" y2="45" gradientUnits="userSpaceOnUse">
      <stop offset="0.259336" stop-color="#FFDB6E"/>
      <stop offset="1" stop-color="#FFBC5E"/>
    </linearGradient>
    <linearGradient id="paint4_linear" x1="40" y1="20" x2="50" y2="35" gradientUnits="userSpaceOnUse">
      <stop offset="0.259336" stop-color="#FFDB6E"/>
      <stop offset="1" stop-color="#FFBC5E"/>
    </linearGradient>
    <linearGradient id="paint5_linear" x1="15" y1="45" x2="45" y2="55" gradientUnits="userSpaceOnUse">
      <stop offset="0.259336" stop-color="#FFDB6E"/>
      <stop offset="1" stop-color="#FFBC5E"/>
    </linearGradient>
  </defs>
</svg>